<?xml version="1.0" encoding="UTF-8" standalone="no"?>
<!-- Created with Inkscape (http://www.inkscape.org/) -->

<svg
   xmlns:dc="http://purl.org/dc/elements/1.1/"
   xmlns:cc="http://creativecommons.org/ns#"
   xmlns:rdf="http://www.w3.org/1999/02/22-rdf-syntax-ns#"
   xmlns:svg="http://www.w3.org/2000/svg"
   xmlns="http://www.w3.org/2000/svg"
   xmlns:sodipodi="http://sodipodi.sourceforge.net/DTD/sodipodi-0.dtd"
   xmlns:inkscape="http://www.inkscape.org/namespaces/inkscape"
   width="744.09448819"
   height="1052.3622047"
   id="svg3108"
   version="1.1"
   inkscape:version="0.48.4 r9939"
   sodipodi:docname="backdisplay.svg">
  <defs
     id="defs3110" />
  <sodipodi:namedview
     id="base"
     pagecolor="#ffffff"
     bordercolor="#666666"
     borderopacity="1.0"
     inkscape:pageopacity="0.0"
     inkscape:pageshadow="2"
     inkscape:zoom="0.9899495"
     inkscape:cx="389.73457"
     inkscape:cy="914.13905"
     inkscape:document-units="mm"
     inkscape:current-layer="layer1"
     showgrid="false"
     inkscape:window-width="1680"
     inkscape:window-height="991"
     inkscape:window-x="0"
     inkscape:window-y="27"
     inkscape:window-maximized="1"
     units="mm" />
  <metadata
     id="metadata3113">
    <rdf:RDF>
      <cc:Work
         rdf:about="">
        <dc:format>image/svg+xml</dc:format>
        <dc:type
           rdf:resource="http://purl.org/dc/dcmitype/StillImage" />
        <dc:title />
      </cc:Work>
    </rdf:RDF>
  </metadata>
  <g
     inkscape:label="Ply"
     inkscape:groupmode="layer"
     id="layer1">
    <rect
       style="display:inline;fill:none;stroke:#ff0000;stroke-width:0.77952754000000002;stroke-miterlimit:4;stroke-opacity:1;stroke-dasharray:none"
       id="rect5644"
       width="113.38583"
       height="113.38583"
       x="49.497475"
       y="69.483765" />
    <g
       style="display:inline"
       id="g5632"
       transform="translate(311.63206,3.0304576)">
      <path
         transform="translate(244.06522,-80.854281)"
         d="m 154.67721,104.46029 c 0,2.9276 -2.37329,5.3009 -5.3009,5.3009 -2.9276,0 -5.3009,-2.3733 -5.3009,-5.3009 0,-2.92761 2.3733,-5.300899 5.3009,-5.300899 2.92761,0 5.3009,2.373289 5.3009,5.300899 z"
         sodipodi:ry="5.3008976"
         sodipodi:rx="5.3008976"
         sodipodi:cy="104.46029"
         sodipodi:cx="149.37631"
         id="path3894"
         style="fill:none;stroke:#ff0000;stroke-opacity:1"
         sodipodi:type="arc" />
      <rect
         y="53.076462"
         x="56.42857"
         height="140.4567"
         width="345.04724"
         id="rect3904"
         style="fill:none;stroke:#ff0000;stroke-width:0.99921262;stroke-miterlimit:4;stroke-opacity:1;stroke-dasharray:none" />
      <path
         transform="translate(244.19512,117.90189)"
         d="m 154.67721,104.46029 c 0,2.9276 -2.37329,5.3009 -5.3009,5.3009 -2.9276,0 -5.3009,-2.3733 -5.3009,-5.3009 0,-2.92761 2.3733,-5.300899 5.3009,-5.300899 2.92761,0 5.3009,2.373289 5.3009,5.300899 z"
         sodipodi:ry="5.3008976"
         sodipodi:rx="5.3008976"
         sodipodi:cy="104.46029"
         sodipodi:cx="149.37631"
         id="path3894-2"
         style="fill:none;stroke:#ff0000;stroke-opacity:1"
         sodipodi:type="arc" />
      <path
         transform="translate(-85.090598,117.90189)"
         d="m 154.67721,104.46029 c 0,2.9276 -2.37329,5.3009 -5.3009,5.3009 -2.9276,0 -5.3009,-2.3733 -5.3009,-5.3009 0,-2.92761 2.3733,-5.300899 5.3009,-5.300899 2.92761,0 5.3009,2.373289 5.3009,5.300899 z"
         sodipodi:ry="5.3008976"
         sodipodi:rx="5.3008976"
         sodipodi:cy="104.46029"
         sodipodi:cx="149.37631"
         id="path3894-0"
         style="fill:none;stroke:#ff0000;stroke-opacity:1"
         sodipodi:type="arc" />
      <path
         transform="translate(-84.217866,-79.828981)"
         d="m 154.67721,104.46029 c 0,2.9276 -2.37329,5.3009 -5.3009,5.3009 -2.9276,0 -5.3009,-2.3733 -5.3009,-5.3009 0,-2.92761 2.3733,-5.300899 5.3009,-5.300899 2.92761,0 5.3009,2.373289 5.3009,5.300899 z"
         sodipodi:ry="5.3008976"
         sodipodi:rx="5.3008976"
         sodipodi:cy="104.46029"
         sodipodi:cx="149.37631"
         id="path3894-22"
         style="fill:none;stroke:#ff0000;stroke-opacity:1"
         sodipodi:type="arc" />
      <rect
         y="16.647896"
         x="54.642857"
         height="213.05905"
         width="347.84647"
         id="rect3906"
         style="fill:none;stroke:#ff0000;stroke-width:0.77952754;stroke-miterlimit:4;stroke-opacity:1;stroke-dasharray:none" />
    </g>
  </g>
  <g
     inkscape:groupmode="layer"
     id="layer2"
     inkscape:label="Info"
     style="display:inline" />
  <rect
     style="fill:none;stroke:#ff0000;stroke-width:0.77952754;stroke-miterlimit:4;stroke-opacity:1;stroke-dasharray:none"
     id="rect5640"
     width="768.72607"
     height="260.61935"
     x="3.0304575"
     y="1.8035436"
     ry="0" />
</svg>
